<svg width="369" height="49" viewBox="0 0 369 49" fill="none" xmlns="http://www.w3.org/2000/svg">
<path d="M3 0H365.837V40.9655H3V0Z" fill="#007DC3"/>
<g filter="url(#filter0_d)">
<path d="M13.1084 43.6254L356.793 42.8999L365.837 40.9653H3L13.1084 43.6254Z" fill="#01679F"/>
</g>
<path d="M33.0591 16.6251C32.5867 16.6251 32.21 16.4974 31.9291 16.2421C31.6482 15.9867 31.5078 15.6356 31.5078 15.1887C31.5078 14.7418 31.6418 14.3906 31.91 14.1353C32.1909 13.8799 32.5739 13.7522 33.0591 13.7522C33.5443 13.7522 33.921 13.8799 34.1891 14.1353C34.47 14.3906 34.6105 14.7418 34.6105 15.1887C34.6105 15.6356 34.47 15.9867 34.1891 16.2421C33.921 16.4974 33.5443 16.6251 33.0591 16.6251ZM31.5078 27.0442C31.5971 27.0442 31.6865 26.9548 31.7759 26.7761C31.8653 26.5973 31.91 26.3036 31.91 25.895V19.2299C31.91 18.8213 31.8653 18.5276 31.7759 18.3489C31.6993 18.1701 31.6163 18.0807 31.5269 18.0807H34.6297V25.895C34.6297 26.3036 34.668 26.5973 34.7446 26.7761C34.8339 26.9548 34.9233 27.0442 35.0127 27.0442H31.5078ZM36.7448 27.0442C36.8342 27.0442 36.9172 26.9548 36.9938 26.7761C37.0832 26.5973 37.1279 26.3036 37.1279 25.895V19.4214C37.1279 19.0128 37.0832 18.7255 36.9938 18.5595C36.9172 18.3808 36.8342 18.285 36.7448 18.2722C37.3066 18.2722 37.8812 18.2339 38.4686 18.1573C39.0559 18.068 39.5156 17.9786 39.8476 17.8892V19.0575L39.8093 19.3065L39.8476 19.3448C39.8859 19.2554 40.0072 19.0958 40.2115 18.866C40.4158 18.6361 40.7094 18.4191 41.0925 18.2148C41.4755 17.9977 41.948 17.8892 42.5098 17.8892C43.6973 17.8892 44.6038 18.2276 45.2295 18.9043C45.8679 19.581 46.1871 20.6408 46.1871 22.0836V25.895C46.1871 26.3036 46.2254 26.5973 46.302 26.7761C46.3914 26.9548 46.4808 27.0442 46.5702 27.0442H43.0844C43.1738 27.0442 43.2567 26.9548 43.3334 26.7761C43.4227 26.5973 43.4674 26.3036 43.4674 25.895V22.1411C43.4674 21.2345 43.327 20.6216 43.0461 20.3024C42.7652 19.9705 42.4076 19.8045 41.9735 19.8045C41.4245 19.8045 40.9329 20.0024 40.4988 20.3982C40.0646 20.7813 39.8476 21.4197 39.8476 22.3135V25.895C39.8476 26.3036 39.8859 26.5973 39.9625 26.7761C40.0519 26.9548 40.1412 27.0442 40.2306 27.0442H36.7448ZM52.9428 27.2357C51.8064 27.2357 50.8488 27.1719 50.0699 27.0442C49.291 26.9165 48.7547 26.7888 48.461 26.6611V26.0866L48.0588 24.2096C48.3908 24.4522 49.0101 24.6948 49.9167 24.9374C50.8232 25.18 51.9341 25.3013 53.2492 25.3013C53.8493 25.3013 54.2643 25.2438 54.4942 25.1289C54.7368 25.014 54.8581 24.8161 54.8581 24.5352C54.8581 24.3181 54.7751 24.1521 54.6091 24.0372C54.4558 23.9223 54.1749 23.8329 53.7663 23.7691C53.3578 23.6925 52.764 23.6031 51.9851 23.5009C51.002 23.3733 50.2231 23.1945 49.6485 22.9647C49.0739 22.7221 48.6653 22.4156 48.4227 22.0453C48.1929 21.6623 48.078 21.1962 48.078 20.6472C48.078 20.1364 48.1993 19.6768 48.4419 19.2682C48.6973 18.8468 49.1314 18.5148 49.7443 18.2722C50.3699 18.0169 51.2382 17.8892 52.349 17.8892C53.3961 17.8892 54.3154 17.953 55.107 18.0807C55.8987 18.2084 56.4669 18.3361 56.8116 18.4638V19.0384L57.1947 20.7238C56.901 20.5323 56.3264 20.3344 55.4709 20.1301C54.6155 19.9258 53.5301 19.8236 52.215 19.8236C51.7042 19.8236 51.3403 19.8747 51.1233 19.9768C50.9062 20.079 50.7977 20.2577 50.7977 20.5131C50.7977 20.6791 50.8679 20.8196 51.0084 20.9345C51.1488 21.0366 51.4233 21.1324 51.8319 21.2218C52.2533 21.3111 52.8789 21.4133 53.7089 21.5282C54.7942 21.6687 55.6114 21.8666 56.1604 22.1219C56.7095 22.3645 57.0798 22.671 57.2713 23.0413C57.4628 23.3988 57.5586 23.8329 57.5586 24.3437C57.5586 25.3268 57.1883 26.0546 56.4477 26.5271C55.7072 26.9995 54.5388 27.2357 52.9428 27.2357ZM62.6427 27.2357C61.4936 27.2357 60.5742 27.0123 59.8847 26.5654C59.208 26.1057 58.8696 25.3715 58.8696 24.3628C58.8696 23.6605 59.0484 23.0923 59.4059 22.6582C59.7634 22.2241 60.2486 21.9049 60.8615 21.7006C61.4872 21.4835 62.1958 21.375 62.9875 21.375C63.8685 21.375 64.558 21.4771 65.056 21.6814C65.5539 21.8857 65.8668 22.0262 65.9945 22.1028C65.9945 21.3111 65.854 20.7302 65.5731 20.3599C65.2922 19.9896 64.7495 19.8045 63.9451 19.8045C63.1662 19.8045 62.4767 19.8811 61.8766 20.0343C61.2765 20.1875 60.7849 20.3663 60.4019 20.5706C60.0316 20.7749 59.7762 20.9472 59.6358 21.0877V20.5131L59.4442 18.6361C59.5336 18.5851 59.7698 18.5021 60.1529 18.3872C60.5359 18.2722 61.0594 18.1637 61.7234 18.0616C62.3874 17.9467 63.179 17.8892 64.0983 17.8892C65.3624 17.8892 66.3264 18.0743 66.9904 18.4446C67.6544 18.8021 68.1076 19.3193 68.3502 19.996C68.6056 20.6727 68.7333 21.4899 68.7333 22.4475V25.895C68.7333 26.2525 68.7716 26.5143 68.8482 26.6803C68.9376 26.8335 69.027 26.9548 69.1163 27.0442H66.0136V26.642L66.0519 26.2781L66.0136 26.2398C65.8093 26.4568 65.4199 26.6803 64.8453 26.9101C64.2835 27.1272 63.5493 27.2357 62.6427 27.2357ZM63.5429 25.3013C64.3346 25.3013 64.9411 25.2119 65.3624 25.0332C65.7965 24.8416 66.0136 24.599 66.0136 24.3054C66.0136 24.0117 65.7902 23.7691 65.3433 23.5775C64.9091 23.386 64.3154 23.2903 63.5621 23.2903C62.8343 23.2903 62.3171 23.3924 62.0107 23.5967C61.717 23.801 61.5702 24.0564 61.5702 24.3628C61.5702 24.7459 61.7426 25.0012 62.0873 25.1289C62.4321 25.2438 62.9173 25.3013 63.5429 25.3013ZM70.6923 27.0442C70.7816 27.0442 70.8646 26.9548 70.9412 26.7761C71.0306 26.5973 71.0753 26.3036 71.0753 25.895V19.4214C71.0753 19.0128 71.0306 18.7255 70.9412 18.5595C70.8646 18.3808 70.7816 18.285 70.6923 18.2722C71.2541 18.2722 71.8287 18.2339 72.416 18.1573C73.0034 18.068 73.463 17.9786 73.795 17.8892V19.0575L73.7567 19.3065L73.795 19.3448C73.8333 19.2554 73.9546 19.0958 74.1589 18.866C74.3632 18.6361 74.6569 18.4191 75.0399 18.2148C75.423 17.9977 75.8954 17.8892 76.4572 17.8892C77.6447 17.8892 78.5513 18.2276 79.1769 18.9043C79.8153 19.581 80.1345 20.6408 80.1345 22.0836V25.895C80.1345 26.3036 80.1729 26.5973 80.2495 26.7761C80.3388 26.9548 80.4282 27.0442 80.5176 27.0442H77.0318C77.1212 27.0442 77.2042 26.9548 77.2808 26.7761C77.3702 26.5973 77.4149 26.3036 77.4149 25.895V22.1411C77.4149 21.2345 77.2744 20.6216 76.9935 20.3024C76.7126 19.9705 76.3551 19.8045 75.9209 19.8045C75.3719 19.8045 74.8803 20.0024 74.4462 20.3982C74.0121 20.7813 73.795 21.4197 73.795 22.3135V25.895C73.795 26.3036 73.8333 26.5973 73.9099 26.7761C73.9993 26.9548 74.0887 27.0442 74.1781 27.0442H70.6923ZM87.0243 27.2357C85.6836 27.2357 84.6302 27.0506 83.8641 26.6803C83.1107 26.31 82.5809 25.7801 82.2744 25.0906C81.968 24.3883 81.8147 23.552 81.8147 22.5816C81.8147 21.1388 82.217 19.996 83.0214 19.1533C83.8258 18.3106 85.0579 17.8892 86.7178 17.8892C87.6882 17.8892 88.4735 18.0233 89.0736 18.2914C89.6865 18.5595 90.1526 18.9171 90.4718 19.364C90.791 19.8108 91.008 20.3088 91.123 20.8579C91.2506 21.3941 91.3145 21.9368 91.3145 22.4858V23.386C91.3145 23.3477 91.1357 23.3094 90.7782 23.2711C90.4335 23.22 89.8461 23.1945 89.0162 23.1945H84.5727C84.5727 23.8968 84.7834 24.4267 85.2048 24.7842C85.6389 25.1289 86.3412 25.3013 87.3116 25.3013C88.1288 25.3013 88.8566 25.2055 89.495 25.014C90.1462 24.8097 90.6186 24.6182 90.9123 24.4394V25.014L91.1038 26.4696C90.8612 26.6356 90.3952 26.808 89.7057 26.9867C89.0162 27.1527 88.1224 27.2357 87.0243 27.2357ZM85.2814 21.5474H88.5948C88.5948 21.2665 88.531 20.9919 88.4033 20.7238C88.2884 20.4557 88.0968 20.2386 87.8287 20.0726C87.5606 19.8938 87.1903 19.8045 86.7178 19.8045C86.0156 19.8045 85.5112 19.9513 85.2048 20.245C84.8983 20.5387 84.7451 20.8451 84.7451 21.1643C84.7451 21.292 84.7834 21.3878 84.86 21.4516C84.9366 21.5154 85.0771 21.5474 85.2814 21.5474ZM92.9311 27.0442C93.0205 27.0442 93.1035 26.9548 93.1801 26.7761C93.2695 26.5973 93.3142 26.3036 93.3142 25.895V14.978C93.3142 14.5694 93.2695 14.2821 93.1801 14.1161C93.1035 13.9374 93.0205 13.8416 92.9311 13.8288H96.0338V19.0575L95.9955 19.3065L96.0338 19.3448C96.0721 19.2554 96.1934 19.0958 96.3977 18.866C96.602 18.6361 96.8957 18.4191 97.2788 18.2148C97.6618 17.9977 98.1343 17.8892 98.6961 17.8892C99.8835 17.8892 100.79 18.2276 101.416 18.9043C102.054 19.581 102.373 20.6408 102.373 22.0836V25.895C102.373 26.3036 102.412 26.5973 102.488 26.7761C102.578 26.9548 102.667 27.0442 102.756 27.0442H99.2706C99.36 27.0442 99.443 26.9548 99.5196 26.7761C99.609 26.5973 99.6537 26.3036 99.6537 25.895V22.1411C99.6537 21.2345 99.5132 20.6216 99.2323 20.3024C98.9514 19.9705 98.5939 19.8045 98.1598 19.8045C97.6107 19.8045 97.1192 20.0024 96.685 20.3982C96.2509 20.7813 96.0338 21.4197 96.0338 22.3135V25.895C96.0338 26.3036 96.0721 26.5973 96.1488 26.7761C96.2381 26.9548 96.3275 27.0442 96.4169 27.0442H92.9311ZM109.263 27.2357C107.922 27.2357 106.869 27.0506 106.103 26.6803C105.35 26.31 104.82 25.7801 104.513 25.0906C104.207 24.3883 104.054 23.552 104.054 22.5816C104.054 21.1388 104.456 19.996 105.26 19.1533C106.065 18.3106 107.297 17.8892 108.957 17.8892C109.927 17.8892 110.712 18.0233 111.312 18.2914C111.925 18.5595 112.391 18.9171 112.711 19.364C113.03 19.8108 113.247 20.3088 113.362 20.8579C113.489 21.3941 113.553 21.9368 113.553 22.4858V23.386C113.553 23.3477 113.375 23.3094 113.017 23.2711C112.672 23.22 112.085 23.1945 111.255 23.1945H106.812C106.812 23.8968 107.022 24.4267 107.444 24.7842C107.878 25.1289 108.58 25.3013 109.55 25.3013C110.368 25.3013 111.095 25.2055 111.734 25.014C112.385 24.8097 112.857 24.6182 113.151 24.4394V25.014L113.343 26.4696C113.1 26.6356 112.634 26.808 111.945 26.9867C111.255 27.1527 110.361 27.2357 109.263 27.2357ZM107.52 21.5474H110.834C110.834 21.2665 110.77 20.9919 110.642 20.7238C110.527 20.4557 110.336 20.2386 110.068 20.0726C109.799 19.8938 109.429 19.8045 108.957 19.8045C108.254 19.8045 107.75 19.9513 107.444 20.245C107.137 20.5387 106.984 20.8451 106.984 21.1643C106.984 21.292 107.022 21.3878 107.099 21.4516C107.175 21.5154 107.316 21.5474 107.52 21.5474ZM115.17 27.0442C115.259 27.0442 115.342 26.9548 115.419 26.7761C115.508 26.5973 115.553 26.3036 115.553 25.895V19.4214C115.553 19.0128 115.508 18.7255 115.419 18.5595C115.342 18.3808 115.259 18.285 115.17 18.2722C115.732 18.2722 116.306 18.2339 116.894 18.1573C117.481 18.068 117.941 17.9786 118.273 17.8892V18.6553L118.234 18.9809L118.273 19.0192C118.362 18.8788 118.503 18.7255 118.694 18.5595C118.898 18.3808 119.154 18.2276 119.46 18.0999C119.779 17.9594 120.15 17.8892 120.571 17.8892C121.197 17.8892 121.752 17.9786 122.237 18.1573C122.722 18.3233 123.067 18.4957 123.272 18.6745L122.697 21.2409V21.8155C122.505 21.5474 122.244 21.2728 121.912 20.9919C121.592 20.711 121.235 20.4748 120.839 20.2833C120.456 20.0918 120.06 19.996 119.652 19.996C119.192 19.996 118.847 20.162 118.617 20.494C118.388 20.8259 118.273 21.3495 118.273 22.0645V25.895C118.273 26.3036 118.311 26.5973 118.388 26.7761C118.477 26.9548 118.566 27.0442 118.656 27.0442H115.17ZM128.597 27.2357C127.32 27.2357 126.317 27.0314 125.59 26.6228C124.875 26.2142 124.37 25.6588 124.077 24.9565C123.796 24.2543 123.655 23.4626 123.655 22.5816C123.655 21.6878 123.802 20.8898 124.096 20.1875C124.402 19.4853 124.913 18.9298 125.628 18.5212C126.343 18.0999 127.333 17.8892 128.597 17.8892C129.861 17.8892 130.85 18.0999 131.565 18.5212C132.28 18.9298 132.785 19.4853 133.078 20.1875C133.385 20.8898 133.538 21.6878 133.538 22.5816C133.538 23.4626 133.391 24.2543 133.097 24.9565C132.817 25.6588 132.319 26.2142 131.604 26.6228C130.889 27.0314 129.886 27.2357 128.597 27.2357ZM128.597 25.3013C129.401 25.3013 129.969 25.1098 130.301 24.7267C130.646 24.3437 130.818 23.6286 130.818 22.5816C130.818 21.5218 130.646 20.794 130.301 20.3982C129.956 20.0024 129.388 19.8045 128.597 19.8045C127.805 19.8045 127.237 20.0151 126.892 20.4365C126.547 20.8579 126.375 21.5793 126.375 22.6008C126.375 23.6222 126.541 24.3309 126.873 24.7267C127.218 25.1098 127.792 25.3013 128.597 25.3013Z" fill="#FFB53A"/>
<path d="M276.543 25.0442C276.623 25.0442 276.697 24.9647 276.765 24.8058C276.844 24.6469 276.884 24.3859 276.884 24.0227V16.5319L275.011 16.8724V15.3401C275.476 15.3401 275.947 15.3061 276.424 15.238C276.912 15.1586 277.36 15.0678 277.769 14.9656C278.189 14.8521 278.529 14.75 278.791 14.6592V24.0227C278.791 24.3859 278.83 24.6469 278.91 24.8058C278.989 24.9647 279.069 25.0442 279.148 25.0442H276.543ZM280.676 25.0442V24.8569C280.79 24.6186 281.062 24.21 281.494 23.6311C281.936 23.041 282.543 22.3486 283.315 21.5541C283.86 20.9867 284.388 20.4816 284.899 20.0389C285.421 19.585 285.852 19.148 286.192 18.7281C286.533 18.3081 286.703 17.8655 286.703 17.4001C286.703 16.9688 286.573 16.634 286.312 16.3957C286.051 16.146 285.619 16.0211 285.018 16.0211C284.473 16.0211 283.962 16.1063 283.485 16.2765C283.009 16.4468 282.583 16.6567 282.209 16.9064C281.845 17.1448 281.562 17.3774 281.357 17.6044V17.2639L281.017 15.6806C281.255 15.4536 281.715 15.2267 282.396 14.9997C283.077 14.7727 283.939 14.6592 284.984 14.6592C285.903 14.6592 286.624 14.7783 287.146 15.0167C287.679 15.255 288.054 15.5671 288.269 15.953C288.496 16.3276 288.61 16.7248 288.61 17.1448C288.61 17.7463 288.468 18.2968 288.184 18.7961C287.901 19.2842 287.52 19.7609 287.044 20.2262C286.578 20.6802 286.062 21.1569 285.494 21.6563C284.904 22.167 284.393 22.5926 283.962 22.9331C283.531 23.2623 283.219 23.4893 283.026 23.6141V23.6652H286.737C287.418 23.6652 287.974 23.6084 288.406 23.4949C288.848 23.3815 289.143 23.268 289.291 23.1545L288.95 24.5164V25.0442H280.676ZM295.001 25.2144C293.492 25.2144 292.362 24.7661 291.613 23.8695C290.864 22.9615 290.49 21.6336 290.49 19.8857C290.49 18.1833 290.87 16.8894 291.63 16.0041C292.391 15.1075 293.514 14.6592 295.001 14.6592H295.188C296.652 14.6592 297.753 15.1018 298.491 15.9871C299.24 16.8724 299.615 18.1719 299.615 19.8857C299.615 21.6336 299.24 22.9615 298.491 23.8695C297.753 24.7661 296.652 25.2144 295.188 25.2144H295.001ZM295.001 23.8354H295.188C295.722 23.8354 296.176 23.7276 296.55 23.512C296.925 23.285 297.209 22.8877 297.402 22.3202C297.606 21.7414 297.708 20.9299 297.708 19.8857C297.708 18.8642 297.606 18.0754 297.402 17.5193C297.209 16.9518 296.925 16.5602 296.55 16.3446C296.176 16.129 295.722 16.0211 295.188 16.0211H295.001C294.456 16.0211 293.991 16.129 293.605 16.3446C293.219 16.5602 292.918 16.9461 292.703 17.5023C292.498 18.0584 292.396 18.8529 292.396 19.8857C292.396 20.9413 292.498 21.7584 292.703 22.3373C292.918 22.9048 293.219 23.2963 293.605 23.512C294.002 23.7276 294.468 23.8354 295.001 23.8354ZM305.492 25.2144C303.982 25.2144 302.853 24.7661 302.104 23.8695C301.355 22.9615 300.98 21.6336 300.98 19.8857C300.98 18.1833 301.36 16.8894 302.121 16.0041C302.881 15.1075 304.005 14.6592 305.492 14.6592H305.679C307.143 14.6592 308.244 15.1018 308.982 15.9871C309.731 16.8724 310.105 18.1719 310.105 19.8857C310.105 21.6336 309.731 22.9615 308.982 23.8695C308.244 24.7661 307.143 25.2144 305.679 25.2144H305.492ZM305.492 23.8354H305.679C306.213 23.8354 306.667 23.7276 307.041 23.512C307.416 23.285 307.699 22.8877 307.892 22.3202C308.097 21.7414 308.199 20.9299 308.199 19.8857C308.199 18.8642 308.097 18.0754 307.892 17.5193C307.699 16.9518 307.416 16.5602 307.041 16.3446C306.667 16.129 306.213 16.0211 305.679 16.0211H305.492C304.947 16.0211 304.482 16.129 304.096 16.3446C303.71 16.5602 303.409 16.9461 303.193 17.5023C302.989 18.0584 302.887 18.8529 302.887 19.8857C302.887 20.9413 302.989 21.7584 303.193 22.3373C303.409 22.9048 303.71 23.2963 304.096 23.512C304.493 23.7276 304.958 23.8354 305.492 23.8354ZM315.901 25.0442C315.981 25.0442 316.06 24.9647 316.14 24.8058C316.219 24.6469 316.259 24.3859 316.259 24.0227V15.8509C316.259 15.4877 316.219 15.2323 316.14 15.0848C316.06 14.9259 315.981 14.8408 315.901 14.8294H325.486V15.1699L325.827 16.8043C325.543 16.6794 325.044 16.5489 324.329 16.4127C323.614 16.2652 322.751 16.1914 321.741 16.1914H318.864C318.523 16.1914 318.319 16.2198 318.251 16.2765C318.194 16.3219 318.166 16.4638 318.166 16.7021V18.6429C318.166 18.8926 318.194 19.0402 318.251 19.0856C318.319 19.131 318.518 19.1537 318.847 19.1537H321.656C322.314 19.1537 322.842 19.1196 323.239 19.0515C323.648 18.9721 323.914 18.8926 324.039 18.8132C323.96 19.0288 323.88 19.3069 323.801 19.6474C323.733 19.9765 323.699 20.2659 323.699 20.5156H318.847C318.518 20.5156 318.319 20.5383 318.251 20.5837C318.194 20.6178 318.166 20.7653 318.166 21.0264V23.1374C318.166 23.3985 318.194 23.5517 318.251 23.5971C318.308 23.6425 318.506 23.6652 318.847 23.6652H323.801C324.459 23.6652 324.987 23.5914 325.384 23.4439C325.793 23.285 326.059 23.1318 326.184 22.9842L325.844 24.5164V25.0442H315.901ZM327.539 25.0442C327.619 25.0442 327.698 24.9647 327.778 24.8058C327.857 24.6469 327.897 24.3859 327.897 24.0227V15.8509C327.897 15.4877 327.857 15.2323 327.778 15.0848C327.698 14.9259 327.619 14.8408 327.539 14.8294H330.161C330.082 14.8294 330.002 14.9089 329.923 15.0678C329.843 15.2267 329.804 15.4934 329.804 15.8679V23.1374C329.804 23.3871 329.832 23.5403 329.889 23.5971C329.957 23.6425 330.161 23.6652 330.502 23.6652H334.809C335.467 23.6652 335.995 23.5914 336.392 23.4439C336.801 23.285 337.067 23.1318 337.192 22.9842L336.852 24.6867V25.0442H327.539ZM343.142 25.2144C341.189 25.2144 339.776 24.7491 338.902 23.8184C338.04 22.8764 337.609 21.5655 337.609 19.8857C337.609 18.8075 337.796 17.8825 338.17 17.1107C338.556 16.3276 339.152 15.726 339.958 15.3061C340.775 14.8748 341.836 14.6592 343.142 14.6592H343.669C344.952 14.6592 345.99 14.8691 346.785 15.2891C347.591 15.709 348.181 16.3106 348.555 17.0937C348.93 17.8768 349.117 18.8075 349.117 19.8857C349.117 21.5655 348.686 22.8764 347.823 23.8184C346.961 24.7491 345.576 25.2144 343.669 25.2144H343.142ZM343.312 23.8354H343.499C344.35 23.8354 345.048 23.7106 345.593 23.4609C346.138 23.2112 346.541 22.8026 346.802 22.2351C347.074 21.6563 347.21 20.8732 347.21 19.8857C347.21 18.4443 346.904 17.4399 346.291 16.8724C345.678 16.3049 344.748 16.0211 343.499 16.0211H343.312C342.029 16.0211 341.076 16.3106 340.452 16.8894C339.827 17.4682 339.515 18.467 339.515 19.8857C339.515 20.8618 339.651 21.6393 339.924 22.2181C340.208 22.7969 340.633 23.2112 341.201 23.4609C341.768 23.7106 342.472 23.8354 343.312 23.8354Z" fill="#DADADA"/>
<defs>
<filter id="filter0_d" x="0.339901" y="40.4333" width="368.158" height="7.9803" filterUnits="userSpaceOnUse" color-interpolation-filters="sRGB">
<feFlood flood-opacity="0" result="BackgroundImageFix"/>
<feColorMatrix in="SourceAlpha" type="matrix" values="0 0 0 0 0 0 0 0 0 0 0 0 0 0 0 0 0 0 127 0"/>
<feOffset dy="2.12808"/>
<feGaussianBlur stdDeviation="1.33005"/>
<feColorMatrix type="matrix" values="0 0 0 0 0 0 0 0 0 0 0 0 0 0 0 0 0 0 0.15 0"/>
<feBlend mode="normal" in2="BackgroundImageFix" result="effect1_dropShadow"/>
<feBlend mode="normal" in="SourceGraphic" in2="effect1_dropShadow" result="shape"/>
</filter>
</defs>
</svg>
