<svg width="369" height="64" viewBox="0 0 369 64" fill="none" xmlns="http://www.w3.org/2000/svg">
<path d="M3 14.897H365.837V55.8625H3V14.897Z" fill="#FFB53A"/>
<g filter="url(#filter0_d)">
<path d="M13.1084 58.5219L356.793 57.7964L365.837 55.8618H3L13.1084 58.5219Z" fill="#E8A332"/>
</g>
<path d="M31.6227 41.9409C31.7121 41.9409 31.8014 41.8515 31.8908 41.6728C31.9802 41.494 32.0249 41.2003 32.0249 40.7918V31.5985C32.0249 31.1899 31.9802 30.9026 31.8908 30.7366C31.8014 30.5578 31.7121 30.4621 31.6227 30.4493H35.3766C35.2872 30.4493 35.1978 30.5387 35.1085 30.7174C35.0191 30.8962 34.9744 31.1962 34.9744 31.6176V34.548C34.9744 34.8289 35.0063 34.9949 35.0702 35.0459C35.1468 35.097 35.3766 35.1226 35.7597 35.1226H40.6819C41.065 35.1226 41.2884 35.1034 41.3523 35.0651C41.4161 35.014 41.448 34.8416 41.448 34.548V31.5985C41.448 31.1899 41.4033 30.9026 41.3139 30.7366C41.2246 30.5578 41.1352 30.4621 41.0458 30.4493H44.7997C44.7104 30.4493 44.621 30.5387 44.5316 30.7174C44.4422 30.8962 44.3975 31.1962 44.3975 31.6176V40.7918C44.3975 41.2003 44.4422 41.494 44.5316 41.6728C44.621 41.8515 44.7104 41.9409 44.7997 41.9409H41.0458C41.1352 41.9409 41.2246 41.8515 41.3139 41.6728C41.4033 41.494 41.448 41.2003 41.448 40.7918V37.8039C41.448 37.5103 41.4097 37.3443 41.3331 37.306C41.2693 37.2549 41.0522 37.2294 40.6819 37.2294H35.7597C35.3766 37.2294 35.1468 37.2549 35.0702 37.306C35.0063 37.357 34.9744 37.523 34.9744 37.8039V40.7918C34.9744 41.2003 35.0191 41.494 35.1085 41.6728C35.1978 41.8515 35.2872 41.9409 35.3766 41.9409H31.6227ZM51.5431 42.1324C50.2024 42.1324 49.1491 41.9473 48.3829 41.577C47.6296 41.2067 47.0997 40.6768 46.7933 39.9873C46.4868 39.2851 46.3336 38.4487 46.3336 37.4783C46.3336 36.0355 46.7358 34.8927 47.5402 34.05C48.3446 33.2073 49.5768 32.7859 51.2367 32.7859C52.2071 32.7859 52.9924 32.92 53.5925 33.1881C54.2054 33.4563 54.6714 33.8138 54.9906 34.2607C55.3098 34.7076 55.5269 35.2055 55.6418 35.7546C55.7695 36.2909 55.8333 36.8335 55.8333 37.3826V38.2828C55.8333 38.2444 55.6546 38.2061 55.2971 38.1678C54.9523 38.1168 54.365 38.0912 53.535 38.0912H49.0916C49.0916 38.7935 49.3023 39.3234 49.7236 39.6809C50.1578 40.0256 50.86 40.198 51.8304 40.198C52.6476 40.198 53.3754 40.1023 54.0138 39.9107C54.665 39.7064 55.1375 39.5149 55.4311 39.3361V39.9107L55.6227 41.3663C55.3801 41.5323 54.914 41.7047 54.2245 41.8835C53.535 42.0495 52.6412 42.1324 51.5431 42.1324ZM49.8002 36.4441H53.1137C53.1137 36.1632 53.0498 35.8887 52.9221 35.6205C52.8072 35.3524 52.6157 35.1353 52.3476 34.9693C52.0794 34.7906 51.7091 34.7012 51.2367 34.7012C50.5344 34.7012 50.0301 34.848 49.7236 35.1417C49.4172 35.4354 49.264 35.7418 49.264 36.061C49.264 36.1887 49.3023 36.2845 49.3789 36.3483C49.4555 36.4122 49.5959 36.4441 49.8002 36.4441ZM57.45 41.9409C57.5393 41.9409 57.6223 41.8515 57.6989 41.6728C57.7883 41.494 57.833 41.2003 57.833 40.7918V34.3181C57.833 33.9095 57.7883 33.6223 57.6989 33.4563C57.6223 33.2775 57.5393 33.1817 57.45 33.169C58.0118 33.169 58.5863 33.1307 59.1737 33.0541C59.761 32.9647 60.2207 32.8753 60.5527 32.7859V33.552L60.5144 33.8776L60.5527 33.9159C60.6421 33.7755 60.7825 33.6223 60.9741 33.4563C61.1783 33.2775 61.4337 33.1243 61.7402 32.9966C62.0594 32.8561 62.4297 32.7859 62.851 32.7859C63.4767 32.7859 64.0321 32.8753 64.5173 33.0541C65.0025 33.2201 65.3473 33.3924 65.5516 33.5712L64.977 36.1376V36.7122C64.7854 36.4441 64.5237 36.1696 64.1917 35.8887C63.8725 35.6078 63.515 35.3715 63.1192 35.18C62.7361 34.9885 62.3403 34.8927 61.9317 34.8927C61.472 34.8927 61.1273 35.0587 60.8974 35.3907C60.6676 35.7227 60.5527 36.2462 60.5527 36.9612V40.7918C60.5527 41.2003 60.591 41.494 60.6676 41.6728C60.757 41.8515 60.8464 41.9409 60.9357 41.9409H57.45ZM70.8766 42.1324C69.5998 42.1324 68.5974 41.9281 67.8696 41.5196C67.1546 41.111 66.6502 40.5555 66.3566 39.8533C66.0757 39.151 65.9352 38.3594 65.9352 37.4783C65.9352 36.5845 66.082 35.7865 66.3757 35.0842C66.6822 34.382 67.1929 33.8266 67.9079 33.418C68.623 32.9966 69.6125 32.7859 70.8766 32.7859C72.1407 32.7859 73.1302 32.9966 73.8453 33.418C74.5603 33.8266 75.0647 34.382 75.3583 35.0842C75.6648 35.7865 75.818 36.5845 75.818 37.4783C75.818 38.3594 75.6712 39.151 75.3775 39.8533C75.0966 40.5555 74.5986 41.111 73.8836 41.5196C73.1685 41.9281 72.1662 42.1324 70.8766 42.1324ZM70.8766 40.198C71.681 40.198 72.2492 40.0065 72.5812 39.6234C72.9259 39.2404 73.0983 38.5254 73.0983 37.4783C73.0983 36.4186 72.9259 35.6908 72.5812 35.2949C72.2364 34.8991 71.6682 34.7012 70.8766 34.7012C70.085 34.7012 69.5168 34.9119 69.172 35.3332C68.8273 35.7546 68.6549 36.476 68.6549 37.4975C68.6549 38.519 68.8209 39.2276 69.1529 39.6234C69.4976 40.0065 70.0722 40.198 70.8766 40.198ZM82.18 42.1324C80.8393 42.1324 79.7859 41.9473 79.0198 41.577C78.2665 41.2067 77.7366 40.6768 77.4301 39.9873C77.1237 39.2851 76.9705 38.4487 76.9705 37.4783C76.9705 36.0355 77.3727 34.8927 78.1771 34.05C78.9815 33.2073 80.2136 32.7859 81.8735 32.7859C82.844 32.7859 83.6292 32.92 84.2293 33.1881C84.8422 33.4563 85.3083 33.8138 85.6275 34.2607C85.9467 34.7076 86.1638 35.2055 86.2787 35.7546C86.4064 36.2909 86.4702 36.8335 86.4702 37.3826V38.2828C86.4702 38.2444 86.2914 38.2061 85.9339 38.1678C85.5892 38.1168 85.0018 38.0912 84.1719 38.0912H79.7284C79.7284 38.7935 79.9391 39.3234 80.3605 39.6809C80.7946 40.0256 81.4969 40.198 82.4673 40.198C83.2845 40.198 84.0123 40.1023 84.6507 39.9107C85.3019 39.7064 85.7743 39.5149 86.068 39.3361V39.9107L86.2595 41.3663C86.0169 41.5323 85.5509 41.7047 84.8614 41.8835C84.1719 42.0495 83.2781 42.1324 82.18 42.1324ZM80.4371 36.4441H83.7505C83.7505 36.1632 83.6867 35.8887 83.559 35.6205C83.4441 35.3524 83.2525 35.1353 82.9844 34.9693C82.7163 34.7906 82.346 34.7012 81.8735 34.7012C81.1713 34.7012 80.6669 34.848 80.3605 35.1417C80.054 35.4354 79.9008 35.7418 79.9008 36.061C79.9008 36.1887 79.9391 36.2845 80.0157 36.3483C80.0923 36.4122 80.2328 36.4441 80.4371 36.4441ZM92.8941 42.1324C91.7577 42.1324 90.8001 42.0686 90.0212 41.9409C89.2424 41.8132 88.7061 41.6855 88.4124 41.5579V40.9833L88.0102 39.1063C88.3422 39.3489 88.9615 39.5915 89.868 39.8341C90.7746 40.0767 91.8854 40.198 93.2006 40.198C93.8007 40.198 94.2157 40.1406 94.4455 40.0256C94.6881 39.9107 94.8094 39.7128 94.8094 39.4319C94.8094 39.2148 94.7264 39.0489 94.5604 38.9339C94.4072 38.819 94.1263 38.7296 93.7177 38.6658C93.3091 38.5892 92.7154 38.4998 91.9365 38.3977C90.9533 38.27 90.1745 38.0912 89.5999 37.8614C89.0253 37.6188 88.6167 37.3123 88.3741 36.9421C88.1443 36.559 88.0294 36.093 88.0294 35.5439C88.0294 35.0332 88.1507 34.5735 88.3933 34.1649C88.6486 33.7436 89.0828 33.4116 89.6956 33.169C90.3213 32.9136 91.1895 32.7859 92.3004 32.7859C93.3474 32.7859 94.2668 32.8498 95.0584 32.9774C95.85 33.1051 96.4182 33.2328 96.763 33.3605V33.9351L97.146 35.6205C96.8524 35.429 96.2778 35.2311 95.4223 35.0268C94.5668 34.8225 93.4815 34.7203 92.1663 34.7203C91.6556 34.7203 91.2917 34.7714 91.0746 34.8736C90.8576 34.9757 90.749 35.1545 90.749 35.4098C90.749 35.5758 90.8193 35.7163 90.9597 35.8312C91.1002 35.9334 91.3747 36.0291 91.7833 36.1185C92.2046 36.2079 92.8303 36.31 93.6602 36.4249C94.7456 36.5654 95.5628 36.7633 96.1118 37.0187C96.6608 37.2613 97.0311 37.5677 97.2227 37.938C97.4142 38.2955 97.5099 38.7296 97.5099 39.2404C97.5099 40.2236 97.1397 40.9514 96.3991 41.4238C95.6585 41.8962 94.4902 42.1324 92.8941 42.1324ZM103.614 41.9409C103.703 41.9409 103.792 41.8515 103.882 41.6728C103.971 41.494 104.016 41.2003 104.016 40.7918V31.5985C104.016 31.1899 103.971 30.9026 103.882 30.7366C103.792 30.5578 103.703 30.4621 103.614 30.4493H107.368C107.278 30.4493 107.189 30.5387 107.099 30.7174C107.01 30.8962 106.965 31.1962 106.965 31.6176V34.548C106.965 34.8289 106.997 34.9949 107.061 35.0459C107.138 35.097 107.368 35.1226 107.751 35.1226H112.673C113.056 35.1226 113.279 35.1034 113.343 35.0651C113.407 35.014 113.439 34.8416 113.439 34.548V31.5985C113.439 31.1899 113.394 30.9026 113.305 30.7366C113.216 30.5578 113.126 30.4621 113.037 30.4493H116.791C116.701 30.4493 116.612 30.5387 116.523 30.7174C116.433 30.8962 116.389 31.1962 116.389 31.6176V40.7918C116.389 41.2003 116.433 41.494 116.523 41.6728C116.612 41.8515 116.701 41.9409 116.791 41.9409H113.037C113.126 41.9409 113.216 41.8515 113.305 41.6728C113.394 41.494 113.439 41.2003 113.439 40.7918V37.8039C113.439 37.5103 113.401 37.3443 113.324 37.306C113.26 37.2549 113.043 37.2294 112.673 37.2294H107.751C107.368 37.2294 107.138 37.2549 107.061 37.306C106.997 37.357 106.965 37.523 106.965 37.8039V40.7918C106.965 41.2003 107.01 41.494 107.099 41.6728C107.189 41.8515 107.278 41.9409 107.368 41.9409H103.614ZM123.266 42.1324C121.989 42.1324 120.987 41.9281 120.259 41.5196C119.544 41.111 119.04 40.5555 118.746 39.8533C118.465 39.151 118.325 38.3594 118.325 37.4783C118.325 36.5845 118.471 35.7865 118.765 35.0842C119.072 34.382 119.582 33.8266 120.297 33.418C121.012 32.9966 122.002 32.7859 123.266 32.7859C124.53 32.7859 125.52 32.9966 126.235 33.418C126.95 33.8266 127.454 34.382 127.748 35.0842C128.054 35.7865 128.207 36.5845 128.207 37.4783C128.207 38.3594 128.061 39.151 127.767 39.8533C127.486 40.5555 126.988 41.111 126.273 41.5196C125.558 41.9281 124.556 42.1324 123.266 42.1324ZM123.266 40.198C124.07 40.198 124.639 40.0065 124.971 39.6234C125.315 39.2404 125.488 38.5254 125.488 37.4783C125.488 36.4186 125.315 35.6908 124.971 35.2949C124.626 34.8991 124.058 34.7012 123.266 34.7012C122.474 34.7012 121.906 34.9119 121.561 35.3332C121.217 35.7546 121.044 36.476 121.044 37.4975C121.044 38.519 121.21 39.2276 121.542 39.6234C121.887 40.0065 122.462 40.198 123.266 40.198ZM129.743 41.9409C129.832 41.9409 129.922 41.8515 130.011 41.6728C130.1 41.494 130.145 41.2003 130.145 40.7918V29.8747C130.145 29.4661 130.1 29.1724 130.011 28.9937C129.934 28.8149 129.851 28.7255 129.762 28.7255C130.605 28.7255 131.288 28.6872 131.811 28.6106C132.348 28.5213 132.699 28.4319 132.865 28.3425V40.7918C132.865 41.2003 132.903 41.494 132.98 41.6728C133.069 41.8515 133.158 41.9409 133.248 41.9409H129.743ZM139.208 42.1324C138.072 42.1324 137.178 41.9281 136.527 41.5196C135.888 41.111 135.435 40.5555 135.167 39.8533C134.912 39.151 134.784 38.3594 134.784 37.4783C134.784 36.5845 134.912 35.7865 135.167 35.0842C135.435 34.382 135.888 33.8266 136.527 33.418C137.178 32.9966 138.072 32.7859 139.208 32.7859C139.77 32.7859 140.262 32.8561 140.683 32.9966C141.117 33.1243 141.475 33.3094 141.756 33.552L141.794 33.5329L141.756 33.169V29.8747C141.756 29.4661 141.711 29.1788 141.621 29.0128C141.545 28.8341 141.462 28.7383 141.372 28.7255H144.475V40.7918C144.475 41.2003 144.514 41.494 144.59 41.6728C144.68 41.8515 144.769 41.9409 144.858 41.9409H141.756V41.6919L141.813 41.328L141.756 41.3089C141.462 41.5515 141.104 41.7494 140.683 41.9026C140.262 42.0558 139.77 42.1324 139.208 42.1324ZM139.534 40.198C140.389 40.198 140.97 39.949 141.277 39.4511C141.596 38.9531 141.756 38.2955 141.756 37.4783C141.756 36.6484 141.596 35.978 141.277 35.4673C140.958 34.9566 140.377 34.7012 139.534 34.7012C138.921 34.7012 138.423 34.9119 138.04 35.3332C137.67 35.7546 137.484 36.476 137.484 37.4975C137.484 38.519 137.663 39.2276 138.021 39.6234C138.391 40.0065 138.895 40.198 139.534 40.198Z" fill="#007DC3"/>
<path d="M276.543 39.9409C276.623 39.9409 276.697 39.8615 276.765 39.7026C276.844 39.5437 276.884 39.2826 276.884 38.9194V31.4286L275.011 31.7691V30.2369C275.476 30.2369 275.947 30.2028 276.424 30.1347C276.912 30.0553 277.36 29.9645 277.769 29.8623C278.189 29.7488 278.529 29.6467 278.791 29.5559V38.9194C278.791 39.2826 278.83 39.5437 278.91 39.7026C278.989 39.8615 279.069 39.9409 279.148 39.9409H276.543ZM280.676 39.9409V39.7536C280.79 39.5153 281.062 39.1067 281.494 38.5279C281.936 37.9377 282.543 37.2454 283.315 36.4509C283.86 35.8834 284.388 35.3783 284.899 34.9357C285.421 34.4817 285.852 34.0447 286.192 33.6248C286.533 33.2048 286.703 32.7622 286.703 32.2969C286.703 31.8656 286.573 31.5307 286.312 31.2924C286.051 31.0427 285.619 30.9179 285.018 30.9179C284.473 30.9179 283.962 31.003 283.485 31.1732C283.009 31.3435 282.583 31.5534 282.209 31.8031C281.845 32.0415 281.562 32.2742 281.357 32.5012V32.1607L281.017 30.5774C281.255 30.3504 281.715 30.1234 282.396 29.8964C283.077 29.6694 283.939 29.5559 284.984 29.5559C285.903 29.5559 286.624 29.6751 287.146 29.9134C287.679 30.1518 288.054 30.4639 288.269 30.8498C288.496 31.2243 288.61 31.6215 288.61 32.0415C288.61 32.643 288.468 33.1935 288.184 33.6929C287.901 34.1809 287.52 34.6576 287.044 35.1229C286.578 35.5769 286.062 36.0536 285.494 36.553C284.904 37.0638 284.393 37.4894 283.962 37.8299C283.531 38.159 283.219 38.386 283.026 38.5108V38.5619H286.737C287.418 38.5619 287.974 38.5052 288.406 38.3917C288.848 38.2782 289.143 38.1647 289.291 38.0512L288.95 39.4132V39.9409H280.676ZM295.001 40.1112C293.492 40.1112 292.362 39.6628 291.613 38.7662C290.864 37.8582 290.49 36.5303 290.49 34.7825C290.49 33.08 290.87 31.7861 291.63 30.9008C292.391 30.0042 293.514 29.5559 295.001 29.5559H295.188C296.652 29.5559 297.753 29.9985 298.491 30.8838C299.24 31.7691 299.615 33.0686 299.615 34.7825C299.615 36.5303 299.24 37.8582 298.491 38.7662C297.753 39.6628 296.652 40.1112 295.188 40.1112H295.001ZM295.001 38.7322H295.188C295.722 38.7322 296.176 38.6243 296.55 38.4087C296.925 38.1817 297.209 37.7845 297.402 37.217C297.606 36.6381 297.708 35.8266 297.708 34.7825C297.708 33.761 297.606 32.9722 297.402 32.416C297.209 31.8485 296.925 31.457 296.55 31.2413C296.176 31.0257 295.722 30.9179 295.188 30.9179H295.001C294.456 30.9179 293.991 31.0257 293.605 31.2413C293.219 31.457 292.918 31.8429 292.703 32.399C292.498 32.9551 292.396 33.7496 292.396 34.7825C292.396 35.838 292.498 36.6552 292.703 37.234C292.918 37.8015 293.219 38.1931 293.605 38.4087C294.002 38.6243 294.468 38.7322 295.001 38.7322ZM305.492 40.1112C303.982 40.1112 302.853 39.6628 302.104 38.7662C301.355 37.8582 300.98 36.5303 300.98 34.7825C300.98 33.08 301.36 31.7861 302.121 30.9008C302.881 30.0042 304.005 29.5559 305.492 29.5559H305.679C307.143 29.5559 308.244 29.9985 308.982 30.8838C309.731 31.7691 310.105 33.0686 310.105 34.7825C310.105 36.5303 309.731 37.8582 308.982 38.7662C308.244 39.6628 307.143 40.1112 305.679 40.1112H305.492ZM305.492 38.7322H305.679C306.213 38.7322 306.667 38.6243 307.041 38.4087C307.416 38.1817 307.699 37.7845 307.892 37.217C308.097 36.6381 308.199 35.8266 308.199 34.7825C308.199 33.761 308.097 32.9722 307.892 32.416C307.699 31.8485 307.416 31.457 307.041 31.2413C306.667 31.0257 306.213 30.9179 305.679 30.9179H305.492C304.947 30.9179 304.482 31.0257 304.096 31.2413C303.71 31.457 303.409 31.8429 303.193 32.399C302.989 32.9551 302.887 33.7496 302.887 34.7825C302.887 35.838 302.989 36.6552 303.193 37.234C303.409 37.8015 303.71 38.1931 304.096 38.4087C304.493 38.6243 304.958 38.7322 305.492 38.7322ZM315.901 39.9409C315.981 39.9409 316.06 39.8615 316.14 39.7026C316.219 39.5437 316.259 39.2826 316.259 38.9194V30.7476C316.259 30.3844 316.219 30.1291 316.14 29.9815C316.06 29.8226 315.981 29.7375 315.901 29.7261H325.486V30.0666L325.827 31.701C325.543 31.5761 325.044 31.4456 324.329 31.3094C323.614 31.1619 322.751 31.0881 321.741 31.0881H318.864C318.523 31.0881 318.319 31.1165 318.251 31.1732C318.194 31.2186 318.166 31.3605 318.166 31.5988V33.5397C318.166 33.7894 318.194 33.9369 318.251 33.9823C318.319 34.0277 318.518 34.0504 318.847 34.0504H321.656C322.314 34.0504 322.842 34.0163 323.239 33.9482C323.648 33.8688 323.914 33.7894 324.039 33.7099C323.96 33.9255 323.88 34.2036 323.801 34.5441C323.733 34.8733 323.699 35.1627 323.699 35.4124H318.847C318.518 35.4124 318.319 35.4351 318.251 35.4805C318.194 35.5145 318.166 35.6621 318.166 35.9231V38.0342C318.166 38.2952 318.194 38.4484 318.251 38.4938C318.308 38.5392 318.506 38.5619 318.847 38.5619H323.801C324.459 38.5619 324.987 38.4881 325.384 38.3406C325.793 38.1817 326.059 38.0285 326.184 37.8809L325.844 39.4132V39.9409H315.901ZM327.539 39.9409C327.619 39.9409 327.698 39.8615 327.778 39.7026C327.857 39.5437 327.897 39.2826 327.897 38.9194V30.7476C327.897 30.3844 327.857 30.1291 327.778 29.9815C327.698 29.8226 327.619 29.7375 327.539 29.7261H330.161C330.082 29.7261 330.002 29.8056 329.923 29.9645C329.843 30.1234 329.804 30.3901 329.804 30.7646V38.0342C329.804 38.2839 329.832 38.4371 329.889 38.4938C329.957 38.5392 330.161 38.5619 330.502 38.5619H334.809C335.467 38.5619 335.995 38.4881 336.392 38.3406C336.801 38.1817 337.067 38.0285 337.192 37.8809L336.852 39.5834V39.9409H327.539ZM343.142 40.1112C341.189 40.1112 339.776 39.6458 338.902 38.7151C338.04 37.7731 337.609 36.4622 337.609 34.7825C337.609 33.7042 337.796 32.7792 338.17 32.0074C338.556 31.2243 339.152 30.6228 339.958 30.2028C340.775 29.7715 341.836 29.5559 343.142 29.5559H343.669C344.952 29.5559 345.99 29.7659 346.785 30.1858C347.591 30.6057 348.181 31.2073 348.555 31.9904C348.93 32.7735 349.117 33.7042 349.117 34.7825C349.117 36.4622 348.686 37.7731 347.823 38.7151C346.961 39.6458 345.576 40.1112 343.669 40.1112H343.142ZM343.312 38.7322H343.499C344.35 38.7322 345.048 38.6073 345.593 38.3576C346.138 38.1079 346.541 37.6993 346.802 37.1319C347.074 36.553 347.21 35.7699 347.21 34.7825C347.21 33.341 346.904 32.3366 346.291 31.7691C345.678 31.2016 344.748 30.9179 343.499 30.9179H343.312C342.029 30.9179 341.076 31.2073 340.452 31.7861C339.827 32.365 339.515 33.3637 339.515 34.7825C339.515 35.7585 339.651 36.536 339.924 37.1148C340.208 37.6937 340.633 38.1079 341.201 38.3576C341.768 38.6073 342.472 38.7322 343.312 38.7322Z" fill="#474747"/>
<path d="M13 0H68V15H13V0Z" fill="#FFB53A"/>
<path d="M156 0H212V15H156V0Z" fill="#FFB53A"/>
<path d="M301 0H357V15H301V0Z" fill="#FFB53A"/>
<path d="M68 0L71 5.35714V10.1786V15H68V0Z" fill="#E8A332"/>
<path d="M301 0L298 5.35714V15H301V0Z" fill="#E8A332"/>
<defs>
<filter id="filter0_d" x="0.339901" y="55.3298" width="368.158" height="7.9803" filterUnits="userSpaceOnUse" color-interpolation-filters="sRGB">
<feFlood flood-opacity="0" result="BackgroundImageFix"/>
<feColorMatrix in="SourceAlpha" type="matrix" values="0 0 0 0 0 0 0 0 0 0 0 0 0 0 0 0 0 0 127 0"/>
<feOffset dy="2.12808"/>
<feGaussianBlur stdDeviation="1.33005"/>
<feColorMatrix type="matrix" values="0 0 0 0 0 0 0 0 0 0 0 0 0 0 0 0 0 0 0.15 0"/>
<feBlend mode="normal" in2="BackgroundImageFix" result="effect1_dropShadow"/>
<feBlend mode="normal" in="SourceGraphic" in2="effect1_dropShadow" result="shape"/>
</filter>
</defs>
</svg>
